<?xml version="1.0" encoding="utf-8"?><!-- Uploaded to: SVG Repo, www.svgrepo.com, Generator: SVG Repo Mixer Tools -->
<svg width="800px" height="800px" viewBox="0 0 1024 1024" class="icon" version="1.1"
    xmlns="http://www.w3.org/2000/svg">
    <path
        d="M882.313259 105.814292c44.82058 25.894914 60.165714 83.215385 34.302769 128.067935l-185.772033 321.736318c-25.894914 44.82058-83.215385 60.197683-128.035965 34.302769l-32.096906-18.510069 18.989603-32.896132 260.515626-451.210889 32.096906 18.510068z"
        fill="#5FCEFF" />
    <path
        d="M850.216353 87.304224l-260.515626 451.210889-18.989603 32.896132-22.729981 39.385845-38.55465-66.751334 282.989854-490.117199 57.640161 33.27976z"
        fill="#FF4893" />
    <path
        d="M652.360026 788.960495c9.143143-12.627767 21.035622-23.561175 35.389716-31.841154 54.69901-31.553433 124.58331-12.819581 156.168712 41.84746 31.553433 54.667041 12.819581 124.58331-41.84746 156.136742-54.667041 31.553433-124.58331 12.819581-156.136743-41.84746-0.927102-1.598452-1.790266-3.196903-2.62146-4.795354-20.300334-39.321907-15.600887-85.517155 9.047235-119.500234z"
        fill="#FFB578" />
    <path
        d="M554.534794 622.210034l97.825232 166.750461c-24.648122 33.983079-29.34757 80.178327-9.047235 119.500234l-132.607537-229.0581-39.609628-68.445694-41.943367-72.441822-260.515626-451.210889v-0.095907l57.831976-33.27976 282.957884 490.117199 38.55465 66.751334 6.553651 11.412944z"
        fill="#FFB578" />
    <path
        d="M471.095626 610.956935l39.609628 68.445694-3.516593 2.046018-133.662514 231.519715-0.319691-0.191814c23.305423-40.792482 18.701883-89.96085-7.832412-125.350567l105.625675-176.437077 0.095907-0.031969z"
        fill="#FF4893" />
    <path
        d="M429.152259 538.515113l18.989604 32.896132-32.064938 18.510069c-44.852549 25.894914-102.17302 10.517811-128.067934-34.302769l-185.740064-321.736318c-25.894914-44.852549-10.54978-102.17302 34.302769-128.067935l32.064937-18.510068 260.515626 451.210889z"
        fill="#FFB578" />
    <path
        d="M365.374044 787.425981c26.534295 35.389716 31.137835 84.558084 7.832412 125.350567-0.063938 0.159845-0.159845 0.31969-0.255752 0.479535-31.585402 54.667041-101.469701 73.400893-156.136743 41.84746-54.69901-31.553433-73.400893-101.469701-41.84746-156.136742s101.469701-73.400893 156.136743-41.84746c13.778652 7.960288 25.255534 18.350223 34.2708 30.30664z"
        fill="#5FCEFF" />
    <path
        d="M369.287053 624.879448c-41.396697 0-79.964135-22.250445-100.654491-58.065349L82.889301 245.071387c-15.511373-26.86997-19.638575-58.164453-11.614349-88.119434 8.024227-29.961375 27.24081-55.005913 54.110781-70.517287l32.064937-18.513265a22.384715 22.384715 0 0 1 30.568786 8.193663l279.508426 484.107021a22.381518 22.381518 0 0 1-8.193662 30.571983l-32.064937 18.510069a116.20103 116.20103 0 0 1-57.98223 15.575311zM160.446168 117.873011l-12.685311 7.324104a70.888127 70.888127 0 0 0-33.254185 43.33402 70.932884 70.932884 0 0 0 7.141881 54.165128l185.740064 321.736318c12.71728 22.013874 36.435103 35.693422 61.898436 35.693422 12.435953 0 24.744029-3.311992 35.600712-9.581118l12.685311-7.320908-257.126908-445.350966z"
        fill="#4F46A3" />
    <path
        d="M645.95663 935.34988a22.375124 22.375124 0 0 1-19.373233-11.13801l-2.618263-4.507633-214.179714-369.974388a22.378321 22.378321 0 0 1 38.733677-22.426274l216.762811 374.424476a22.378321 22.378321 0 0 1-19.325278 33.621829z"
        fill="#4F46A3" />
    <path
        d="M745.038244 992.807817c-48.746377 0-94.145596-26.195423-118.486816-68.36577a143.237239 143.237239 0 0 1-3.097799-5.661715c-23.839306-46.169673-19.692922-100.929425 10.789548-142.959109 11.275477-15.575311 25.520877-28.394892 42.323799-38.084705a136.737935 136.737935 0 0 1 68.228304-18.318254c48.730392 0 94.136006 26.192226 118.496406 68.35618 37.678699 65.287153 15.230046 149.042815-50.037926 186.711922a136.689982 136.689982 0 0 1-68.215516 18.321451z m-0.239768-228.636108a91.946127 91.946127 0 0 0-45.865967 12.330455 90.948693 90.948693 0 0 0-28.446043 25.581617c-20.51133 28.276607-23.295832 65.095339-7.285742 96.108495 0.645774 1.243595 1.342699 2.538341 2.090775 3.82989 16.393719 28.404483 46.943324 46.022616 79.743548 46.022616 16.022878 0 31.87632-4.261472 45.849983-12.327258 43.893478-25.335456 58.992451-81.664887 33.653798-125.567956-16.387325-28.353333-46.943324-45.977859-79.740352-45.977859zM560.215691 654.374075a22.365533 22.365533 0 0 1-19.392414-11.176373l-50.773213-87.962786-282.961081-490.117199a22.378321 22.378321 0 1 1 38.759252-22.378321l321.512534 556.865337 12.205776 21.182679a22.378321 22.378321 0 0 1-8.168087 30.57518 22.240854 22.240854 0 0 1-11.182767 3.011483z"
        fill="#4F46A3" />
    <path
        d="M652.379208 811.342012a22.371927 22.371927 0 0 1-19.325279-11.058087l-111.316162-189.777753a22.371927 22.371927 0 0 1 7.992257-30.619937 22.365533 22.365533 0 0 1 30.619937 7.992258l111.309769 189.758571a22.378321 22.378321 0 0 1-19.280522 33.704948zM168.655815 109.589835a22.362336 22.362336 0 0 1-19.414792-11.22113 22.375124 22.375124 0 0 1 8.235222-30.555999l57.831975-33.27976a22.375124 22.375124 0 0 1 30.555999 8.235222 22.375124 22.375124 0 0 1-8.235222 30.555999l-57.831975 33.27976c-3.516593 2.02364-7.352877 2.985907-11.141207 2.985908z"
        fill="#4F46A3" />
    <path
        d="M649.466829 624.837888a115.34426 115.34426 0 0 1-57.85755-15.536948l-32.080922-18.503675a22.378321 22.378321 0 0 1-8.203253-30.565589 22.35914 22.35914 0 0 1 18.625157-11.189161 22.362336 22.362336 0 0 1 0.367644-21.716562l260.515625-451.210889a22.387912 22.387912 0 0 1 30.562393-8.19686l32.096906 18.510069c55.42151 32.02018 74.481446 103.176847 42.509219 158.633523l-185.77523 321.745909c-21.499173 37.205557-60.610084 58.030183-100.759989 58.030183z m-53.669608-64.788436l18.187182 10.489039c34.069395 19.680135 77.796635 7.957092 97.479966-26.115501l185.765639-321.729924c19.651363-34.082183 7.93791-77.825407-26.1155-97.502345l-12.70769-7.327301-249.329661 431.840854a22.288808 22.288808 0 0 1-13.279936 10.345178zM373.503768 935.34988a22.381518 22.381518 0 0 1-19.360444-33.570679l133.662514-231.519715a22.378321 22.378321 0 0 1 38.762449 22.378321l-133.662514 231.519715a22.378321 22.378321 0 0 1-19.402005 11.192358z"
        fill="#4F46A3" />
    <path
        d="M547.958765 633.181805a22.378321 22.378321 0 0 1-19.357248-33.567481l41.719584-72.285174a22.384715 22.384715 0 0 1 38.765646 22.378321l-41.719584 72.27878a22.378321 22.378321 0 0 1-19.408398 11.195554zM273.843514 992.807817a136.651619 136.651619 0 0 1-68.215516-18.321451c-31.626961-18.244725-54.248247-47.720171-63.695095-82.991602-9.446848-35.258643-4.597147-72.09336 13.653972-103.71073 24.341219-42.167151 69.740439-68.365771 118.486816-68.36577a136.680391 136.680391 0 0 1 68.218713 18.321451 136.539727 136.539727 0 0 1 40.952328 36.217714 136.699572 136.699572 0 0 1 9.731372 149.333733 25.757447 25.757447 0 0 1-0.808816 1.435409c-24.200556 41.885823-69.602972 68.081246-118.323774 68.081246z m0.22698-228.636108c-32.803422 0-63.34983 17.621329-79.724367 45.981056-12.276108 21.268996-15.536949 46.044994-9.187899 69.75962 6.352246 23.717823 21.566308 43.535425 42.832106 55.805139a91.885386 91.885386 0 0 0 45.846786 12.330455c32.681939 0 63.138834-17.509438 79.570916-45.70932 0.118285-0.223783 0.239768-0.44437 0.364447-0.661758a91.949324 91.949324 0 0 0-6.30749-100.827124 91.875795 91.875795 0 0 0-27.563697-24.354007 91.815054 91.815054 0 0 0-45.830802-12.324061zM509.407312 566.427274a22.381518 22.381518 0 0 1-19.360445-33.570679l282.989854-490.117199a22.381518 22.381518 0 0 1 38.765645 22.378321l-282.99305 490.117199a22.375124 22.375124 0 0 1-19.402004 11.192358z"
        fill="#4F46A3" />
    <path
        d="M365.351666 809.810696a22.378321 22.378321 0 0 1-19.178222-33.877581l105.625676-176.437077a22.378321 22.378321 0 1 1 38.401198 22.992127l-105.625675 176.437076a22.371927 22.371927 0 0 1-19.222977 10.885455zM850.037326 109.589835a22.244051 22.244051 0 0 1-11.166782-3.001892l-57.640161-33.27976a22.381518 22.381518 0 0 1 22.378321-38.759252l57.640161 33.27976a22.381518 22.381518 0 0 1-11.211539 41.761144z"
        fill="#4F46A3" />
</svg>